<svg xmlns="http://www.w3.org/2000/svg" style="width:0; height:0; visibility:hidden;">
    <symbol id="icon_fb-icon" viewBox="0 0 10 16">
        <path id="fb-icon" class="cls-1" d="M982.661,3056H980.5a3.713,3.713,0,0,0-3.992,3.94v1.81h-2.171a0.336,0.336,0,0,0-.339.33v2.63a0.336,0.336,0,0,0,.339.33h2.171v6.63a0.336,0.336,0,0,0,.339.33h2.832a0.336,0.336,0,0,0,.339-0.33v-6.63h2.538a0.336,0.336,0,0,0,.339-0.33v-2.63a0.309,0.309,0,0,0-.1-0.23,0.357,0.357,0,0,0-.24-0.1h-2.538v-1.54c0-.74.183-1.11,1.185-1.11h1.455a0.336,0.336,0,0,0,.339-0.33v-2.44A0.336,0.336,0,0,0,982.661,3056Z" transform="translate(-973.5 -3056)"/> 
    </symbol>
    <symbol id="icon_ok-icon" viewBox="0 0 12 18">
        <path id="ok-icon" class="cls-1" d="M977.113,3127.33a6.536,6.536,0,0,1-3.446-1.19c-0.124-.09-0.251-0.18-0.364-0.28a0.93,0.93,0,0,1-.135-1.35,1,1,0,0,1,1.3-.28,1.643,1.643,0,0,1,.286.16,5.818,5.818,0,0,0,6.264.06,1.719,1.719,0,0,1,.61-0.31,0.979,0.979,0,0,1,1.1.42,0.888,0.888,0,0,1-.067,1.19,4.959,4.959,0,0,1-1.822,1.13,8.43,8.43,0,0,1-2.068.45c0.107,0.11.157,0.17,0.223,0.23,0.958,0.93,1.92,1.86,2.874,2.79a0.91,0.91,0,0,1,.214,1.09,1.142,1.142,0,0,1-1.064.64,1.073,1.073,0,0,1-.673-0.33c-0.722-.71-1.459-1.4-2.167-2.11-0.206-.21-0.3-0.17-0.487.01-0.726.72-1.465,1.43-2.208,2.14a0.951,0.951,0,0,1-1.118.2,1.1,1.1,0,0,1-.653-1.01,1,1,0,0,1,.35-0.68c0.948-.91,1.893-1.83,2.838-2.75C976.964,3127.49,977.022,3127.43,977.113,3127.33Zm0.786-3.18a4.072,4.072,0,1,1,4.233-4.02A4.144,4.144,0,0,1,977.9,3124.15Zm2.09-4.08a2.06,2.06,0,1,0-2.046,2A2.029,2.029,0,0,0,979.989,3120.07Z" transform="translate(-971.922 -3115.045)"/> 
    </symbol>
    <symbol id="icon_phone" viewBox="0 0 29.88 30">
        <path id="phone" class="cls-1" d="M1253.25,357.284a0.5,0.5,0,0,0-.7.707,4.812,4.812,0,0,1,0,6.776,0.5,0.5,0,0,0,.35.854,0.474,0.474,0,0,0,.35-0.147A5.812,5.812,0,0,0,1253.25,357.284Zm-2.09,1.138a0.5,0.5,0,0,0-.71,0,0.51,0.51,0,0,0,0,.707,3.282,3.282,0,0,1,0,4.639,0.5,0.5,0,0,0,.35.853,0.516,0.516,0,0,0,.36-0.146A4.313,4.313,0,0,0,1251.16,358.422Zm-23.71-.431a0.5,0.5,0,0,0-.7-0.707,5.812,5.812,0,0,0,0,8.19,0.474,0.474,0,0,0,.35.147,0.5,0.5,0,0,0,.35-0.854A4.812,4.812,0,0,1,1227.45,357.991Zm2.1,0.293a0.5,0.5,0,0,0-.71,0,4.313,4.313,0,0,0,0,6.053,0.516,0.516,0,0,0,.36.146,0.5,0.5,0,0,0,.35-0.853,3.282,3.282,0,0,1,0-4.639A0.51,0.51,0,0,0,1229.55,358.284ZM1240,380.5a1,1,0,1,1-1,1A1,1,0,0,1,1240,380.5Zm6.27-25.5h-12.54a2.206,2.206,0,0,0-2.2,2.2v25.6a2.206,2.206,0,0,0,2.2,2.2h12.54a2.206,2.206,0,0,0,2.2-2.2V357.2A2.206,2.206,0,0,0,1246.27,355Zm-4.78,1.5h0.5a0.5,0.5,0,0,1,0,1h-0.5A0.5,0.5,0,0,1,1241.49,356.5Zm-3.48,0H1240a0.5,0.5,0,0,1,0,1h-1.99A0.5,0.5,0,0,1,1238.01,356.5Zm1.99,27a2,2,0,1,1,1.99-2A2,2,0,0,1,1240,383.5Zm7.47-5.5h-14.94V359h14.94v19Z" transform="translate(-1225.06 -355)"/> 
    </symbol>
    <symbol id="icon_send" viewBox="0 0 30 29.062">
        <path id="send" class="cls-1" d="M453.948,356.207l-27.614,14.481c-1.136.6-1.089,1.467,0.1,1.94l3.526,1.394a4.519,4.519,0,0,0,4-.576l15.313-12.074c1.007-.794,1.115-0.676.24,0.261l-12.106,12.959a1.465,1.465,0,0,0,.577,2.541L438.4,377.3c1.192,0.462,3.144,1.237,4.33,1.722l3.912,1.591c1.187,0.483,2.158.884,2.159,0.891a0.054,0.054,0,0,0,.013.031c0.006,0,.287-1.007.622-2.244l5.962-21.91C455.736,356.137,455.083,355.613,453.948,356.207Zm-16.409,22.4-2.7-1.108c-1.186-.485-1.754.083-1.263,1.269,0,0,2.512,6.051,2.443,6.265s2.408-3.591,2.408-3.591A1.857,1.857,0,0,0,437.539,378.6Z" transform="translate(-425.5 -355.969)"/> 
    </symbol>
    <symbol id="icon_tw-icon" viewBox="0 0 16 14">
        <path id="tw-icon" class="cls-1" d="M985.559,3178.24a6.567,6.567,0,0,1-2.086.8,3.284,3.284,0,0,0-5.593,2.99,9.313,9.313,0,0,1-6.765-3.43,3.284,3.284,0,0,0,1.016,4.38,3.253,3.253,0,0,1-1.487-.41v0.04a3.286,3.286,0,0,0,2.632,3.22,3.492,3.492,0,0,1-.864.12,4.161,4.161,0,0,1-.618-0.06,3.3,3.3,0,0,0,3.065,2.28,6.583,6.583,0,0,1-4.076,1.4,6.745,6.745,0,0,1-.783-0.05,9.328,9.328,0,0,0,14.37-7.86l-0.01-.43a6.524,6.524,0,0,0,1.64-1.69,6.3,6.3,0,0,1-1.885.51A3.284,3.284,0,0,0,985.559,3178.24Z" transform="translate(-970 -3177.5)"/> 
    </symbol>
    <symbol id="icon_vk-icon" viewBox="0 0 18 10">
        <path id="vk-icon" class="cls-1" d="M985.991,3098.14a0.611,0.611,0,0,0-.055-0.1,7.883,7.883,0,0,0-1.6-1.82l-0.016-.02-0.009-.01-0.008-.01H984.3c-0.357-.33-0.583-0.56-0.677-0.67a0.632,0.632,0,0,1-.117-0.67,6.219,6.219,0,0,1,.752-1.08c0.228-.29.409-0.52,0.543-0.7,0.964-1.26,1.382-2.07,1.253-2.42l-0.049-.08a0.48,0.48,0,0,0-.259-0.14,1.312,1.312,0,0,0-.535-0.02l-2.407.02a0.235,0.235,0,0,0-.167,0,0.46,0.46,0,0,1-.109.02l-0.042.02-0.033.03a0.317,0.317,0,0,0-.092.09,0.609,0.609,0,0,0-.083.14,13.548,13.548,0,0,1-.894,1.85c-0.206.34-.4,0.64-0.569,0.89a4.3,4.3,0,0,1-.434.55,4.17,4.17,0,0,1-.318.29,0.318,0.318,0,0,1-.217.09c-0.05-.01-0.1-0.03-0.142-0.04a0.512,0.512,0,0,1-.188-0.2,0.865,0.865,0,0,1-.1-0.32,3.172,3.172,0,0,1-.029-0.33c0-.1,0-0.23,0-0.4s0.008-.28.008-0.35c0-.2,0-0.43.013-0.67s0.015-.44.021-0.59,0.008-.29.008-0.45a1.85,1.85,0,0,0-.029-0.37,1.417,1.417,0,0,0-.088-0.27,0.5,0.5,0,0,0-.171-0.2,1.339,1.339,0,0,0-.28-0.11,8.577,8.577,0,0,0-3.125.09,1.219,1.219,0,0,0-.318.25c-0.1.12-.114,0.19-0.042,0.2a1.059,1.059,0,0,1,.711.35l0.05,0.1a1.571,1.571,0,0,1,.117.38,3.721,3.721,0,0,1,.075.6,6.277,6.277,0,0,1,0,1.03c-0.028.29-.054,0.51-0.079,0.67a1.378,1.378,0,0,1-.113.39,1.238,1.238,0,0,1-.1.18,0.293,0.293,0,0,1-.041.04,0.5,0.5,0,0,1-.51-0.07,2.419,2.419,0,0,1-.347-0.32,4.1,4.1,0,0,1-.4-0.57,9.027,9.027,0,0,1-.468-0.85l-0.134-.24c-0.083-.16-0.2-0.38-0.342-0.67s-0.273-.58-0.385-0.86a0.554,0.554,0,0,0-.2-0.26l-0.042-.02a0.309,0.309,0,0,0-.134-0.07,0.65,0.65,0,0,0-.192-0.06l-2.29.02a0.6,0.6,0,0,0-.476.15l-0.033.05a0.3,0.3,0,0,0-.025.14,0.636,0.636,0,0,0,.05.22c0.334,0.77.7,1.52,1.09,2.24s0.734,1.3,1.024,1.74,0.585,0.85.885,1.24,0.5,0.64.6,0.75,0.174,0.19.23,0.25l0.209,0.2a4.719,4.719,0,0,0,.589.47,9.006,9.006,0,0,0,.861.54,4.526,4.526,0,0,0,1.1.44,3.994,3.994,0,0,0,1.22.14h0.961a0.709,0.709,0,0,0,.443-0.18l0.034-.05a0.477,0.477,0,0,0,.062-0.15,0.78,0.78,0,0,0,.029-0.22,2.693,2.693,0,0,1,.055-0.64,1.571,1.571,0,0,1,.142-0.43,0.874,0.874,0,0,1,.179-0.24,0.519,0.519,0,0,1,.143-0.12,0.13,0.13,0,0,1,.066-0.03,0.52,0.52,0,0,1,.473.13,2.4,2.4,0,0,1,.509.47c0.159,0.19.35,0.41,0.573,0.64a4,4,0,0,0,.585.53l0.167,0.1a2.844,2.844,0,0,0,.434.18,0.977,0.977,0,0,0,.468.04l2.139-.03a0.957,0.957,0,0,0,.493-0.11,0.381,0.381,0,0,0,.209-0.22,0.624,0.624,0,0,0,0-.28A0.961,0.961,0,0,0,985.991,3098.14Z" transform="translate(-969.047 -3089.5)"/> 
    </symbol>
    <symbol id="icon_yt-icon" viewBox="0 0 16 11">
        <path id="yt-icon" class="cls-1" d="M985.721,3149.93a2.007,2.007,0,0,0-1.729-1.55,81.683,81.683,0,0,0-11.982,0,2.006,2.006,0,0,0-1.728,1.55,24.94,24.94,0,0,0,0,7.46,2,2,0,0,0,1.729,1.55,81.656,81.656,0,0,0,11.98,0,2.007,2.007,0,0,0,1.73-1.55A25.207,25.207,0,0,0,985.721,3149.93Zm-9.787,6.18v-5.22c1.7,0.88,3.38,1.74,5.086,2.62Z" transform="translate(-970 -3148.16)"/> 
    </symbol></svg>