<svg xmlns="http://www.w3.org/2000/svg" width="10" height="16" viewBox="0 0 10 16">
  <defs>
    <style>
      .cls-1 {
        fill: #fff;
        fill-rule: evenodd;
      }
    </style>
  </defs>
  <path id="fb-icon" class="cls-1" d="M982.661,3056H980.5a3.713,3.713,0,0,0-3.992,3.94v1.81h-2.171a0.336,0.336,0,0,0-.339.33v2.63a0.336,0.336,0,0,0,.339.33h2.171v6.63a0.336,0.336,0,0,0,.339.33h2.832a0.336,0.336,0,0,0,.339-0.33v-6.63h2.538a0.336,0.336,0,0,0,.339-0.33v-2.63a0.309,0.309,0,0,0-.1-0.23,0.357,0.357,0,0,0-.24-0.1h-2.538v-1.54c0-.74.183-1.11,1.185-1.11h1.455a0.336,0.336,0,0,0,.339-0.33v-2.44A0.336,0.336,0,0,0,982.661,3056Z" transform="translate(-973.5 -3056)"/>
</svg>
