<svg xmlns="http://www.w3.org/2000/svg" width="12" height="18" viewBox="0 0 12 18">
  <defs>
    <style>
      .cls-1 {
        fill: #fff;
        fill-rule: evenodd;
      }
    </style>
  </defs>
  <path id="ok-icon" class="cls-1" d="M977.113,3127.33a6.536,6.536,0,0,1-3.446-1.19c-0.124-.09-0.251-0.18-0.364-0.28a0.93,0.93,0,0,1-.135-1.35,1,1,0,0,1,1.3-.28,1.643,1.643,0,0,1,.286.16,5.818,5.818,0,0,0,6.264.06,1.719,1.719,0,0,1,.61-0.31,0.979,0.979,0,0,1,1.1.42,0.888,0.888,0,0,1-.067,1.19,4.959,4.959,0,0,1-1.822,1.13,8.43,8.43,0,0,1-2.068.45c0.107,0.11.157,0.17,0.223,0.23,0.958,0.93,1.92,1.86,2.874,2.79a0.91,0.91,0,0,1,.214,1.09,1.142,1.142,0,0,1-1.064.64,1.073,1.073,0,0,1-.673-0.33c-0.722-.71-1.459-1.4-2.167-2.11-0.206-.21-0.3-0.17-0.487.01-0.726.72-1.465,1.43-2.208,2.14a0.951,0.951,0,0,1-1.118.2,1.1,1.1,0,0,1-.653-1.01,1,1,0,0,1,.35-0.68c0.948-.91,1.893-1.83,2.838-2.75C976.964,3127.49,977.022,3127.43,977.113,3127.33Zm0.786-3.18a4.072,4.072,0,1,1,4.233-4.02A4.144,4.144,0,0,1,977.9,3124.15Zm2.09-4.08a2.06,2.06,0,1,0-2.046,2A2.029,2.029,0,0,0,979.989,3120.07Z" transform="translate(-971.922 -3115.045)"/>
</svg>
