<svg xmlns="http://www.w3.org/2000/svg" width="29.88" height="30" viewBox="0 0 29.88 30">
  <defs>
    <style>
      .cls-1 {
        fill: #fff;
        fill-rule: evenodd;
      }
    </style>
  </defs>
  <path id="phone" class="cls-1" d="M1253.25,357.284a0.5,0.5,0,0,0-.7.707,4.812,4.812,0,0,1,0,6.776,0.5,0.5,0,0,0,.35.854,0.474,0.474,0,0,0,.35-0.147A5.812,5.812,0,0,0,1253.25,357.284Zm-2.09,1.138a0.5,0.5,0,0,0-.71,0,0.51,0.51,0,0,0,0,.707,3.282,3.282,0,0,1,0,4.639,0.5,0.5,0,0,0,.35.853,0.516,0.516,0,0,0,.36-0.146A4.313,4.313,0,0,0,1251.16,358.422Zm-23.71-.431a0.5,0.5,0,0,0-.7-0.707,5.812,5.812,0,0,0,0,8.19,0.474,0.474,0,0,0,.35.147,0.5,0.5,0,0,0,.35-0.854A4.812,4.812,0,0,1,1227.45,357.991Zm2.1,0.293a0.5,0.5,0,0,0-.71,0,4.313,4.313,0,0,0,0,6.053,0.516,0.516,0,0,0,.36.146,0.5,0.5,0,0,0,.35-0.853,3.282,3.282,0,0,1,0-4.639A0.51,0.51,0,0,0,1229.55,358.284ZM1240,380.5a1,1,0,1,1-1,1A1,1,0,0,1,1240,380.5Zm6.27-25.5h-12.54a2.206,2.206,0,0,0-2.2,2.2v25.6a2.206,2.206,0,0,0,2.2,2.2h12.54a2.206,2.206,0,0,0,2.2-2.2V357.2A2.206,2.206,0,0,0,1246.27,355Zm-4.78,1.5h0.5a0.5,0.5,0,0,1,0,1h-0.5A0.5,0.5,0,0,1,1241.49,356.5Zm-3.48,0H1240a0.5,0.5,0,0,1,0,1h-1.99A0.5,0.5,0,0,1,1238.01,356.5Zm1.99,27a2,2,0,1,1,1.99-2A2,2,0,0,1,1240,383.5Zm7.47-5.5h-14.94V359h14.94v19Z" transform="translate(-1225.06 -355)"/>
</svg>
