<svg xmlns="http://www.w3.org/2000/svg" width="30" height="29.062" viewBox="0 0 30 29.062">
  <defs>
    <style>
      .cls-1 {
        fill: #0078bf;
        fill-rule: evenodd;
      }
    </style>
  </defs>
  <path id="send" class="cls-1" d="M453.948,356.207l-27.614,14.481c-1.136.6-1.089,1.467,0.1,1.94l3.526,1.394a4.519,4.519,0,0,0,4-.576l15.313-12.074c1.007-.794,1.115-0.676.24,0.261l-12.106,12.959a1.465,1.465,0,0,0,.577,2.541L438.4,377.3c1.192,0.462,3.144,1.237,4.33,1.722l3.912,1.591c1.187,0.483,2.158.884,2.159,0.891a0.054,0.054,0,0,0,.013.031c0.006,0,.287-1.007.622-2.244l5.962-21.91C455.736,356.137,455.083,355.613,453.948,356.207Zm-16.409,22.4-2.7-1.108c-1.186-.485-1.754.083-1.263,1.269,0,0,2.512,6.051,2.443,6.265s2.408-3.591,2.408-3.591A1.857,1.857,0,0,0,437.539,378.6Z" transform="translate(-425.5 -355.969)"/>
</svg>
