<svg xmlns="http://www.w3.org/2000/svg" width="16" height="14" viewBox="0 0 16 14">
  <defs>
    <style>
      .cls-1 {
        fill: #fff;
        fill-rule: evenodd;
      }
    </style>
  </defs>
  <path id="tw-icon" class="cls-1" d="M985.559,3178.24a6.567,6.567,0,0,1-2.086.8,3.284,3.284,0,0,0-5.593,2.99,9.313,9.313,0,0,1-6.765-3.43,3.284,3.284,0,0,0,1.016,4.38,3.253,3.253,0,0,1-1.487-.41v0.04a3.286,3.286,0,0,0,2.632,3.22,3.492,3.492,0,0,1-.864.12,4.161,4.161,0,0,1-.618-0.06,3.3,3.3,0,0,0,3.065,2.28,6.583,6.583,0,0,1-4.076,1.4,6.745,6.745,0,0,1-.783-0.05,9.328,9.328,0,0,0,14.37-7.86l-0.01-.43a6.524,6.524,0,0,0,1.64-1.69,6.3,6.3,0,0,1-1.885.51A3.284,3.284,0,0,0,985.559,3178.24Z" transform="translate(-970 -3177.5)"/>
</svg>
