<svg xmlns="http://www.w3.org/2000/svg" width="18" height="10" viewBox="0 0 18 10">
  <defs>
    <style>
      .cls-1 {
        fill: #fff;
        fill-rule: evenodd;
      }
    </style>
  </defs>
  <path id="vk-icon" class="cls-1" d="M985.991,3098.14a0.611,0.611,0,0,0-.055-0.1,7.883,7.883,0,0,0-1.6-1.82l-0.016-.02-0.009-.01-0.008-.01H984.3c-0.357-.33-0.583-0.56-0.677-0.67a0.632,0.632,0,0,1-.117-0.67,6.219,6.219,0,0,1,.752-1.08c0.228-.29.409-0.52,0.543-0.7,0.964-1.26,1.382-2.07,1.253-2.42l-0.049-.08a0.48,0.48,0,0,0-.259-0.14,1.312,1.312,0,0,0-.535-0.02l-2.407.02a0.235,0.235,0,0,0-.167,0,0.46,0.46,0,0,1-.109.02l-0.042.02-0.033.03a0.317,0.317,0,0,0-.092.09,0.609,0.609,0,0,0-.083.14,13.548,13.548,0,0,1-.894,1.85c-0.206.34-.4,0.64-0.569,0.89a4.3,4.3,0,0,1-.434.55,4.17,4.17,0,0,1-.318.29,0.318,0.318,0,0,1-.217.09c-0.05-.01-0.1-0.03-0.142-0.04a0.512,0.512,0,0,1-.188-0.2,0.865,0.865,0,0,1-.1-0.32,3.172,3.172,0,0,1-.029-0.33c0-.1,0-0.23,0-0.4s0.008-.28.008-0.35c0-.2,0-0.43.013-0.67s0.015-.44.021-0.59,0.008-.29.008-0.45a1.85,1.85,0,0,0-.029-0.37,1.417,1.417,0,0,0-.088-0.27,0.5,0.5,0,0,0-.171-0.2,1.339,1.339,0,0,0-.28-0.11,8.577,8.577,0,0,0-3.125.09,1.219,1.219,0,0,0-.318.25c-0.1.12-.114,0.19-0.042,0.2a1.059,1.059,0,0,1,.711.35l0.05,0.1a1.571,1.571,0,0,1,.117.38,3.721,3.721,0,0,1,.075.6,6.277,6.277,0,0,1,0,1.03c-0.028.29-.054,0.51-0.079,0.67a1.378,1.378,0,0,1-.113.39,1.238,1.238,0,0,1-.1.18,0.293,0.293,0,0,1-.041.04,0.5,0.5,0,0,1-.51-0.07,2.419,2.419,0,0,1-.347-0.32,4.1,4.1,0,0,1-.4-0.57,9.027,9.027,0,0,1-.468-0.85l-0.134-.24c-0.083-.16-0.2-0.38-0.342-0.67s-0.273-.58-0.385-0.86a0.554,0.554,0,0,0-.2-0.26l-0.042-.02a0.309,0.309,0,0,0-.134-0.07,0.65,0.65,0,0,0-.192-0.06l-2.29.02a0.6,0.6,0,0,0-.476.15l-0.033.05a0.3,0.3,0,0,0-.025.14,0.636,0.636,0,0,0,.05.22c0.334,0.77.7,1.52,1.09,2.24s0.734,1.3,1.024,1.74,0.585,0.85.885,1.24,0.5,0.64.6,0.75,0.174,0.19.23,0.25l0.209,0.2a4.719,4.719,0,0,0,.589.47,9.006,9.006,0,0,0,.861.54,4.526,4.526,0,0,0,1.1.44,3.994,3.994,0,0,0,1.22.14h0.961a0.709,0.709,0,0,0,.443-0.18l0.034-.05a0.477,0.477,0,0,0,.062-0.15,0.78,0.78,0,0,0,.029-0.22,2.693,2.693,0,0,1,.055-0.64,1.571,1.571,0,0,1,.142-0.43,0.874,0.874,0,0,1,.179-0.24,0.519,0.519,0,0,1,.143-0.12,0.13,0.13,0,0,1,.066-0.03,0.52,0.52,0,0,1,.473.13,2.4,2.4,0,0,1,.509.47c0.159,0.19.35,0.41,0.573,0.64a4,4,0,0,0,.585.53l0.167,0.1a2.844,2.844,0,0,0,.434.18,0.977,0.977,0,0,0,.468.04l2.139-.03a0.957,0.957,0,0,0,.493-0.11,0.381,0.381,0,0,0,.209-0.22,0.624,0.624,0,0,0,0-.28A0.961,0.961,0,0,0,985.991,3098.14Z" transform="translate(-969.047 -3089.5)"/>
</svg>
