<svg xmlns="http://www.w3.org/2000/svg" width="16" height="11" viewBox="0 0 16 11">
  <defs>
    <style>
      .cls-1 {
        fill: #fff;
        fill-rule: evenodd;
      }
    </style>
  </defs>
  <path id="yt-icon" class="cls-1" d="M985.721,3149.93a2.007,2.007,0,0,0-1.729-1.55,81.683,81.683,0,0,0-11.982,0,2.006,2.006,0,0,0-1.728,1.55,24.94,24.94,0,0,0,0,7.46,2,2,0,0,0,1.729,1.55,81.656,81.656,0,0,0,11.98,0,2.007,2.007,0,0,0,1.73-1.55A25.207,25.207,0,0,0,985.721,3149.93Zm-9.787,6.18v-5.22c1.7,0.88,3.38,1.74,5.086,2.62Z" transform="translate(-970 -3148.16)"/>
</svg>
